<?xml version="1.0" standalone="no"?>
<!DOCTYPE svg PUBLIC "-//W3C//DTD SVG 20010904//EN"
 "http://www.w3.org/TR/2001/REC-SVG-20010904/DTD/svg10.dtd">
<svg version="1.0" xmlns="http://www.w3.org/2000/svg"
 width="321.000000pt" height="321.000000pt" viewBox="0 0 321.000000 321.000000"
 preserveAspectRatio="xMidYMid meet">
<metadata>
Created by potrace 1.14, written by Peter Selinger 2001-2017
</metadata>
<g transform="translate(0.000000,321.000000) scale(0.100000,-0.100000)"
fill="#000000" stroke="none">
<path d="M1164 3058 c-9 -14 -9 -57 0 -130 l6 -53 -29 34 c-24 27 -34 32 -55
27 -35 -9 -43 -42 -17 -70 29 -31 26 -39 -9 -21 -54 28 -46 15 10 -16 80 -43
165 -132 205 -213 34 -67 42 -96 28 -96 -32 1 -53 16 -63 44 -17 51 -66 111
-133 162 -64 48 -151 94 -177 93 -8 0 17 -15 56 -34 80 -39 159 -105 204 -171
l30 -43 -58 -32 c-80 -46 -190 -159 -229 -239 -54 -109 -66 -174 -60 -335 6
-155 17 -216 84 -444 25 -86 56 -196 68 -244 27 -102 34 -113 95 -140 37 -17
72 -22 198 -25 l152 -4 0 -175 0 -174 -22 12 c-12 7 -46 12 -75 12 -139 0
-228 -159 -146 -261 l31 -38 -23 -71 c-12 -39 -32 -87 -44 -107 l-23 -36 82 0
81 0 -7 128 c-8 145 6 217 52 271 51 62 60 4 13 -85 -29 -55 -31 -64 -26 -134
3 -41 11 -99 18 -127 l12 -53 225 0 224 0 -6 23 c-29 110 -30 127 -9 155 11
15 32 28 46 30 23 3 30 -4 57 -58 17 -33 33 -80 37 -105 l6 -45 79 0 79 0 -7
48 c-9 61 -27 112 -63 179 -28 51 -29 56 -15 88 21 51 18 153 -6 192 -41 68
-127 84 -204 39 -56 -33 -161 -38 -170 -8 -5 16 -27 326 -23 328 1 0 52 11
112 24 129 27 255 69 421 140 172 73 159 54 145 212 -29 321 -85 689 -131 867
-17 63 -30 122 -30 132 0 26 -66 96 -112 120 -106 54 -343 67 -537 30 -58 -11
-106 -19 -108 -17 -7 7 40 143 63 184 14 23 42 53 64 67 21 13 41 33 45 44 9
28 -16 75 -40 79 -33 5 -87 -39 -122 -98 -53 -89 -54 -91 -48 -37 4 26 13 64
21 83 19 44 11 70 -23 79 -21 5 -31 1 -45 -17 -23 -30 -48 -104 -48 -142 0
-55 -18 -8 -25 68 -10 95 -19 116 -49 116 -14 0 -28 -5 -32 -12z m384 -70 c16
-16 15 -58 -2 -58 -24 0 -68 -53 -102 -124 -35 -72 -70 -206 -61 -230 5 -14
-29 -54 -38 -45 -2 3 -10 26 -17 52 -11 41 -10 57 5 114 24 93 81 207 129 259
41 45 65 53 86 32z m-386 -530 c3 -28 -5 -41 -47 -83 -28 -28 -65 -80 -82
-116 -75 -152 -81 -295 -20 -484 20 -60 40 -137 46 -169 15 -83 13 -264 -3
-301 l-13 -30 -13 45 c-99 360 -127 490 -136 617 -15 212 57 400 194 508 31
24 60 44 64 45 4 0 8 -15 10 -32z"/>
<path d="M910 2859 c0 -5 5 -7 10 -4 6 3 10 8 10 11 0 2 -4 4 -10 4 -5 0 -10
-5 -10 -11z"/>
</g>
</svg>
